#!OML:ASF E:\inclinewalkrobotboard\Project 1\Capture day 1\Session 1\subject1.ASF
:FULLY-SPECIFIED
:DEGREES
307
root 8.68903 16.7742 3.14268 11.0931 6.81314 2.81954
lowerback -1.54484 -2.80306 -10.2474
upperback 4.11649 -3.39423 1.7501
thorax 5.95021 -2.18689 7.36946
lowerneck -6.50233 -0.769929 -1.41829
upperneck 28.8698 -2.51927 5.9422
head 10.3532 -0.665859 2.09724
rclavicle 4.25772e-014 2.26615e-014
rhumerus -54.4184 -24.1654 -60.9392
rradius 20.2426
rwrist 24.8486
rhand -10.7849 -38.2222
rfingers 7.12502
rthumb 15.2277 -67.6418
lclavicle 4.25772e-014 2.26615e-014
lhumerus -9.90488 -23.706 98.357
lradius 24.9012
lwrist -17.6757
lhand -24.5195 -21.1788
lfingers 7.12502
lthumb 1.97567 8.79183
rfemur -32.3639 1.2742 6.05251
rtibia 22.3734
rfoot -6.56299 -11.6066
rtoes -29.7954
lfemur -6.09945 -12.4248 -20.2834
ltibia 23.0946
lfoot -26.7539 4.43335
ltoes -67.7616
308
root 8.58812 16.7623 3.35613 11.3271 6.8901 3.18043
lowerback -1.67213 -3.06403 -10.0053
upperback 4.00459 -3.75019 1.84824
thorax 5.96496 -2.35146 7.30135
lowerneck -6.60484 -0.533741 -0.997667
upperneck 28.8382 -1.96493 4.87419
head 10.3223 -0.483007 1.69867
rclavicle 4.04278e-014 -2.01766e-014
rhumerus -55.2083 -25.4465 -59.3911
rradius 19.8796
rwrist 25.6325
rhand -11.5799 -37.884
rfingers 7.12502
rthumb 14.4618 -67.36
lclavicle 4.04278e-014 -2.01766e-014
lhumerus -10.2251 -23.7027 99.1396
lradius 24.8913
lwrist -17.8899
lhand -23.9414 -21.3349
lfingers 7.12502
lthumb 2.534 8.6298
rfemur -32.985 1.85548 6.16275
rtibia 24.641
rfoot -7.56298 -12.0596
rtoes -30.4194
lfemur -5.45551 -12.6419 -20.294
ltibia 22.9756
lfoot -26.4307 4.05851
ltoes -67.7001
309
root 8.48967 16.7582 3.56996 11.609 7.01415 3.47808
lowerback -1.77163 -3.31862 -9.59043
upperback 3.87377 -4.11137 1.99187
thorax 5.93105 -2.50941 7.18422
lowerneck -6.61626 -0.239817 -0.319362
upperneck 28.7739 -1.31231 3.5843
head 10.2658 -0.253892 1.18802
rclavicle -4.17448e-015 1.43125e-014
rhumerus -55.8376 -26.4529 -57.98
rradius 19.6117
rwrist 26.2318
rhand -12.3272 -37.6627
rfingers 7.12502
rthumb 13.7417 -67.1889
lclavicle -4.17448e-015 1.43125e-014
lhumerus -10.5732 -23.5807 99.9161
lradius 24.9594
lwrist -18.325
lhand -23.6238 -21.3128
lfingers 7.12502
lthumb 2.84069 8.648
rfemur -33.4306 2.40109 6.3351
rtibia 26.5702
rfoot -8.81603 -12.4268
rtoes -30.597
lfemur -5.02583 -12.9447 -20.2256
ltibia 23.0932
lfoot -26.08 3.74921
ltoes -67.5624
310
root 8.39245 16.7643 3.78175 11.9506 7.29612 3.73793
lowerback -1.75418 -3.60312 -9.02627
upperback 3.64776 -4.5329 2.14103
thorax 5.72304 -2.68012 6.9916
lowerneck -6.65413 -0.0383438 -0.524514
upperneck 28.6988 -0.840457 3.0356
head 10.2309 -0.119561 1.07728
rclavicle 2.45499e-014 9.14409e-015
rhumerus -56.5198 -27.442 -56.4017
rradius 19.274
rwrist 27.1286
rhand -11.3326 -37.8512
rfingers 7.12502
rthumb 14.7001 -67.3101
lclavicle 2.45499e-014 9.14409e-015
lhumerus -11.2005 -23.845 100.614
lradius 25.284
lwrist -18.3167
lhand -23.8708 -21.3949
lfingers 7.12502
lthumb 2.60211 8.56897
rfemur -33.5461 2.63058 6.57427
rtibia 27.8172
rfoot -9.84108 -12.7262
rtoes -31.3184
lfemur -4.85547 -13.3408 -20.0667
ltibia 23.4001
lfoot -25.5893 3.42593
ltoes -67.338
311
root 8.29597 16.777 3.9916 12.3872 7.70893 3.83277
lowerback -1.79688 -3.93237 -8.25397
upperback 3.37461 -5.01991 2.36146
thorax 5.49308 -2.87628 6.75008
lowerneck -6.64203 0.197006 -0.677824
upperneck 28.6397 -0.342235 2.52544
head 10.1945 0.0364102 0.974254
rclavicle 5.92378e-014 -5.56597e-015
rhumerus -57.1466 -28.1988 -54.9216
rradius 19.0858
rwrist 27.8348
rhand -8.31822 -38.2086
rfingers 7.12502
rthumb 17.6026 -67.4318
lclavicle 5.92378e-014 -5.56597e-015
lhumerus -11.9768 -24.3699 101.197
lradius 25.7935
lwrist -18.0352
lhand -23.977 -21.4107
lfingers 7.12502
lthumb 2.49959 8.55438
rfemur -33.4314 2.65592 7.00917
rtibia 28.5043
rfoot -10.7717 -12.8925
rtoes -31.9835
lfemur -4.93952 -13.7905 -19.63
ltibia 23.7462
lfoot -24.7668 3.07273
ltoes -67.1479
312
root 8.20411 16.7947 4.20227 12.9117 8.07266 3.80766
lowerback -2.00903 -4.25993 -7.36349
upperback 3.12509 -5.49862 2.66969
thorax 5.37374 -3.07382 6.52395
lowerneck -6.7087 0.507432 -0.851917
upperneck 28.6203 0.264637 2.01404
head 10.189 0.240676 0.886603
rclavicle -1.05356e-014 2.14687e-014
rhumerus -57.5265 -28.8434 -53.3841
rradius 18.821
rwrist 28.4695
rhand -8.5615 -38.6934
rfingers 7.12502
rthumb 17.3685 -67.9374
lclavicle -1.05356e-014 2.14687e-014
lhumerus -12.5809 -24.6756 101.715
lradius 26.2114
lwrist -17.9231
lhand -23.7114 -21.4846
lfingers 7.12502
lthumb 2.7561 8.47736
rfemur -33.3081 2.51219 7.60795
rtibia 28.9862
rfoot -11.621 -12.8228
rtoes -32.9098
lfemur -5.17896 -14.285 -19.0576
ltibia 24.1348
lfoot -23.861 2.90499
ltoes -67.192
313
root 8.11677 16.8177 4.40684 13.4755 8.15257 3.84306
lowerback -2.18905 -4.45452 -6.59705
upperback 2.84187 -5.79654 2.96787
thorax 5.17574 -3.18447 6.37771
lowerneck -6.86087 0.815567 -0.96815
upperneck 28.7332 0.87522 1.44339
head 10.2531 0.446364 0.770515
rclavicle 3.51849e-014 -3.37934e-014
rhumerus -57.9687 -29.6621 -51.3787
rradius 18.2931
rwrist 29.7531
rhand -8.71382 -38.6643
rfingers 7.12502
rthumb 17.2219 -67.9212
lclavicle 3.51849e-014 -3.37934e-014
lhumerus -13.0717 -24.8237 102.253
lradius 26.3749
lwrist -18.017
lhand -23.5387 -21.7957
lfingers 7.12502
lthumb 2.92286 8.16398
rfemur -33.2663 2.28587 8.16907
rtibia 29.3879
rfoot -12.2687 -12.5785
rtoes -34.0507
lfemur -5.50261 -14.5056 -18.6321
ltibia 24.6883
lfoot -23.0866 2.748
ltoes -67.4211
314
root 8.03258 16.8466 4.59533 13.9812 7.96189 4.00757
lowerback -2.20463 -4.47546 -6.06703
upperback 2.58426 -5.85587 3.18106
thorax 4.88702 -3.18318 6.30916
lowerneck -6.74016 0.991438 -1.26384
upperneck 28.4212 1.27642 1.07564
head 10.1098 0.561229 0.729973
rclavicle -2.26615e-014 6.36111e-015
rhumerus -58.3594 -30.4979 -49.382
rradius 17.7951
rwrist 31.2384
rhand -8.98103 -38.1941
rfingers 7.12502
rthumb 16.9647 -67.4732
lclavicle -2.26615e-014 6.36111e-015
lhumerus -13.5665 -25.1705 102.732
lradius 26.4735
lwrist -18.2481
lhand -23.5488 -21.9186
lfingers 7.12502
lthumb 2.91311 8.04127
rfemur -33.1684 2.1518 8.54126
rtibia 29.5313
rfoot -12.8407 -12.2052
rtoes -34.3905
lfemur -5.86546 -14.5383 -18.4268
ltibia 25.4916
lfoot -22.6114 2.48986
ltoes -67.6239
315
root 7.94732 16.8793 4.77339 14.412 7.61304 4.16451
lowerback -2.22898 -4.4179 -5.71393
upperback 2.45252 -5.79837 3.34243
thorax 4.73206 -3.13769 6.29021
lowerneck -6.47472 1.19369 -1.04895
upperneck 27.9361 1.67915 0.483827
head 9.8846 0.708513 0.520011
rclavicle 3.33958e-014 7.15625e-015
rhumerus -58.4159 -31.3878 -47.6972
rradius 17.416
rwrist 32.6037
rhand -8.92219 -37.915
rfingers 7.12502
rthumb 17.0213 -67.1893
lclavicle 3.33958e-014 7.15625e-015
lhumerus -14.0088 -25.6827 102.988
lradius 26.7042
lwrist -18.4793
lhand -23.4031 -21.7261
lfingers 7.12502
lthumb 3.05382 8.23174
rfemur -32.9895 2.31098 8.83304
rtibia 29.4354
rfoot -13.4447 -11.8385
rtoes -33.7215
lfemur -6.22286 -14.5516 -18.2409
ltibia 26.3656
lfoot -22.5707 2.2295
ltoes -67.868
316
root 7.86234 16.9095 4.94533 14.7958 7.0477 4.40377
lowerback -2.29619 -4.30787 -5.66446
upperback 2.41792 -5.65471 3.45816
thorax 4.71854 -3.0658 6.39463
lowerneck -6.27525 1.36342 -0.814279
upperneck 27.4265 1.99966 -0.000292327
head 9.66798 0.833201 0.337602
rclavicle -1.78906e-014 1.27222e-014
rhumerus -58.2167 -32.2071 -46.3128
rradius 17.1465
rwrist 33.7078
rhand -9.05945 -37.8685
rfingers 7.12502
rthumb 16.8892 -67.1541
lclavicle -1.78906e-014 1.27222e-014
lhumerus -14.3679 -26.186 103.11
lradius 26.8958
lwrist -18.777
lhand -23.6822 -21.4129
lfingers 7.12502
lthumb 2.78432 8.54871
rfemur -32.8781 2.70729 8.96689
rtibia 29.4191
rfoot -14.0504 -11.4838
rtoes -32.8378
lfemur -6.47309 -14.4167 -18.2259
ltibia 26.9466
lfoot -22.6413 1.88591
ltoes -68.0349
317
root 7.78613 16.938 5.10633 15.0636 6.37096 4.70032
lowerback -2.24636 -4.14282 -5.67798
upperback 2.42652 -5.43668 3.49512
thorax 4.66978 -2.9573 6.46491
lowerneck -6.14837 1.49345 -0.672147
upperneck 27.0862 2.24244 -0.343932
head 9.52719 0.927169 0.214772
rclavicle 2.46493e-014 -2.46493e-014
rhumerus -57.7127 -32.6298 -45.5603
rradius 16.9936
rwrist 34.2132
rhand -9.27323 -37.9664
rfingers 7.12502
rthumb 16.6834 -67.2695
lclavicle 2.46493e-014 -2.46493e-014
lhumerus -14.7672 -26.7721 103.161
lradius 27.0475
lwrist -18.8697
lhand -24.5261 -21.1849
lfingers 7.12502
lthumb 1.96925 8.7858
rfemur -32.718 3.11384 9.01723
rtibia 29.4696
rfoot -14.5475 -11.0945
rtoes -32.5364
lfemur -6.63219 -14.1612 -18.3926
ltibia 27.269
lfoot -22.9452 1.94
ltoes -67.9004
318
root 7.71559 16.9701 5.26147 15.149 5.83635 4.96846
lowerback -2.0037 -3.99012 -5.5631
upperback 2.44262 -5.24501 3.45342
thorax 4.50228 -2.85243 6.38905
lowerneck -5.88247 1.60889 -0.448192
upperneck 26.853 2.45994 -0.727829
head 9.402 1.01373 0.0610698
rclavicle 9.93923e-015 -6.36111e-015
rhumerus -57.1566 -33.0893 -44.9629
rradius 16.8415
rwrist 34.741
rhand -9.56861 -37.8244
rfingers 7.12502
rthumb 16.399 -67.1512
lclavicle 9.93923e-015 -6.36111e-015
lhumerus -15.1972 -27.2813 103.04
lradius 27.1914
lwrist -18.2812
lhand -24.508 -21.142
lfingers 7.12502
lthumb 1.98671 8.82847
rfemur -32.1813 3.59312 9.08571
rtibia 29.2235
rfoot -14.9514 -10.8724
rtoes -32.1177
lfemur -6.81698 -13.9168 -18.5467
ltibia 27.7181
lfoot -23.3649 2.02064
ltoes -67.714
319
root 7.64511 17.007 5.40948 15.138 5.41635 5.30474
lowerback -1.81102 -3.8869 -5.61342
upperback 2.63131 -5.11174 3.41881
thorax 4.57196 -2.79454 6.39878
lowerneck -5.71855 1.70504 -0.2083
upperneck 26.5738 2.67624 -1.22505
head 9.28379 1.0904 -0.13316
rclavicle 1.31198e-014 -3.4191e-014
rhumerus -56.2643 -33.9858 -44.4499
rradius 16.8312
rwrist 35.2765
rhand -9.87566 -37.6899
rfingers 7.12502
rthumb 16.1034 -67.0408
lclavicle 1.31198e-014 -3.4191e-014
lhumerus -15.1276 -27.4506 102.635
lradius 27.1088
lwrist -17.5157
lhand -23.8662 -21.1845
lfingers 7.12502
lthumb 2.60662 8.77936
rfemur -31.3986 4.21104 9.04597
rtibia 28.7291
rfoot -15.2511 -10.9231
rtoes -31.3576
lfemur -7.17859 -13.7272 -18.741
ltibia 28.457
lfoot -23.7329 2.15933
ltoes -67.4042
